# xmcd CD database file
#
# Track frame offsets:
#	150
#	58679
#	99459
#	168460
#
# Disc length: 2759 seconds
#
# Revision: 0
# Processed by: cddbd v1.5.2PL0 Copyright (c) Steve Scherf et al.
# Submitted via: CDex 1.70beta2
#
DISCID=2d0ac504
DTITLE=Mingus, Charles - Charles Mingus presents Charles Mingus
DYEAR=1960
DGENRE=Jazz
TTITLE0=Folk Forms No 1
TTITLE1=Original Faubus Fables
TTITLE2=What Love?
TTITLE3=All The things You Could Be By Now If Sigmund Freud's Wife Was Your Mother
EXTD=YEAR: 1960
EXTT0=
EXTT1=
EXTT2=
EXTT3=
PLAYORDER=
